<mxfile host="app.diagrams.net" modified="2021-03-28T07:10:32.274Z" agent="5.0 (Macintosh; Intel Mac OS X 11_2_3) AppleWebKit/537.36 (KHTML, like Gecko) Chrome/89.0.4389.90 Safari/537.36" etag="oRrmWN50NLRnunuTXdM1" version="14.5.3" type="github">
  <diagram id="prtHgNgQTEPvFCAcTncT" name="Page-1">
    <mxGraphModel dx="1186" dy="678" grid="1" gridSize="10" guides="1" tooltips="1" connect="1" arrows="1" fold="1" page="1" pageScale="1" pageWidth="827" pageHeight="1169" math="0" shadow="0">
      <root>
        <mxCell id="0" />
        <mxCell id="1" parent="0" />
        <mxCell id="YYawzCJaXFo9MmSvKnX5-35" value="application" style="swimlane;html=1;fillColor=#ffffff;whiteSpace=wrap" vertex="1" parent="1">
          <mxGeometry x="40" y="60" width="230" height="440" as="geometry">
            <mxRectangle x="60" y="420" width="100" height="23" as="alternateBounds" />
          </mxGeometry>
        </mxCell>
        <mxCell id="YYawzCJaXFo9MmSvKnX5-38" value="&lt;meta charset=&quot;utf-8&quot;&gt;&lt;span style=&quot;color: rgb(0, 0, 0); font-family: helvetica; font-size: 12px; font-style: normal; font-weight: 400; letter-spacing: normal; text-align: center; text-indent: 0px; text-transform: none; word-spacing: 0px; background-color: rgb(248, 249, 250); display: inline; float: none;&quot;&gt;app router&amp;nbsp;&lt;/span&gt;" style="swimlane;html=1;fillColor=#ffffff;whiteSpace=wrap" vertex="1" parent="YYawzCJaXFo9MmSvKnX5-35">
          <mxGeometry x="30" y="32.5" width="150" height="147.5" as="geometry" />
        </mxCell>
        <mxCell id="YYawzCJaXFo9MmSvKnX5-37" value="app launch page bootstrap" style="whiteSpace=wrap;html=1;" vertex="1" parent="YYawzCJaXFo9MmSvKnX5-38">
          <mxGeometry x="10" y="32.5" width="130" height="40" as="geometry" />
        </mxCell>
        <mxCell id="YYawzCJaXFo9MmSvKnX5-44" value="sub app destination registry(for ms invoke in frontend)" style="whiteSpace=wrap;html=1;" vertex="1" parent="YYawzCJaXFo9MmSvKnX5-38">
          <mxGeometry x="10" y="87.5" width="130" height="40" as="geometry" />
        </mxCell>
        <mxCell id="YYawzCJaXFo9MmSvKnX5-39" value="&lt;span style=&quot;color: rgb(0 , 0 , 0) ; font-family: &amp;#34;helvetica&amp;#34; ; font-size: 12px ; font-style: normal ; font-weight: 400 ; letter-spacing: normal ; text-align: center ; text-indent: 0px ; text-transform: none ; word-spacing: 0px ; background-color: rgb(248 , 249 , 250) ; display: inline ; float: none&quot;&gt;app launch page&lt;/span&gt;" style="swimlane;html=1;fillColor=#ffffff;whiteSpace=wrap" vertex="1" parent="YYawzCJaXFo9MmSvKnX5-35">
          <mxGeometry x="30" y="250" width="150" height="150" as="geometry">
            <mxRectangle x="30" y="130" width="120" height="23" as="alternateBounds" />
          </mxGeometry>
        </mxCell>
        <mxCell id="YYawzCJaXFo9MmSvKnX5-40" value="sub app ui registry" style="whiteSpace=wrap;html=1;" vertex="1" parent="YYawzCJaXFo9MmSvKnX5-39">
          <mxGeometry x="10" y="32.5" width="130" height="40" as="geometry" />
        </mxCell>
        <mxCell id="YYawzCJaXFo9MmSvKnX5-45" value="provide slot for sub app(such as menu , enter point)" style="whiteSpace=wrap;html=1;" vertex="1" parent="YYawzCJaXFo9MmSvKnX5-39">
          <mxGeometry x="10" y="90" width="130" height="40" as="geometry" />
        </mxCell>
        <mxCell id="YYawzCJaXFo9MmSvKnX5-60" value="MS-Server 1" style="rounded=0;whiteSpace=wrap;html=1;" vertex="1" parent="1">
          <mxGeometry x="380" y="100" width="120" height="30" as="geometry" />
        </mxCell>
        <mxCell id="YYawzCJaXFo9MmSvKnX5-67" value="" style="endArrow=classic;startArrow=classic;html=1;entryX=0;entryY=0.75;entryDx=0;entryDy=0;" edge="1" parent="1" target="YYawzCJaXFo9MmSvKnX5-60">
          <mxGeometry width="50" height="50" relative="1" as="geometry">
            <mxPoint x="220" y="123" as="sourcePoint" />
            <mxPoint x="340" y="120" as="targetPoint" />
          </mxGeometry>
        </mxCell>
        <mxCell id="YYawzCJaXFo9MmSvKnX5-68" value="MS-Server ...." style="rounded=0;whiteSpace=wrap;html=1;" vertex="1" parent="1">
          <mxGeometry x="380" y="140" width="120" height="30" as="geometry" />
        </mxCell>
        <mxCell id="YYawzCJaXFo9MmSvKnX5-69" value="" style="endArrow=classic;startArrow=classic;html=1;entryX=0;entryY=0.75;entryDx=0;entryDy=0;" edge="1" parent="1">
          <mxGeometry width="50" height="50" relative="1" as="geometry">
            <mxPoint x="220" y="155" as="sourcePoint" />
            <mxPoint x="380" y="154.5" as="targetPoint" />
          </mxGeometry>
        </mxCell>
        <mxCell id="YYawzCJaXFo9MmSvKnX5-70" value="Sub app / Sub component 1" style="rounded=0;whiteSpace=wrap;html=1;" vertex="1" parent="1">
          <mxGeometry x="380" y="340" width="120" height="30" as="geometry" />
        </mxCell>
        <mxCell id="YYawzCJaXFo9MmSvKnX5-72" value="Sub app / Sub component 2" style="rounded=0;whiteSpace=wrap;html=1;" vertex="1" parent="1">
          <mxGeometry x="380" y="390" width="120" height="30" as="geometry" />
        </mxCell>
        <mxCell id="YYawzCJaXFo9MmSvKnX5-73" value="" style="endArrow=classic;html=1;" edge="1" parent="1" target="YYawzCJaXFo9MmSvKnX5-70">
          <mxGeometry width="50" height="50" relative="1" as="geometry">
            <mxPoint x="220" y="356" as="sourcePoint" />
            <mxPoint x="440" y="280" as="targetPoint" />
          </mxGeometry>
        </mxCell>
        <mxCell id="YYawzCJaXFo9MmSvKnX5-74" value="............" style="rounded=0;whiteSpace=wrap;html=1;" vertex="1" parent="1">
          <mxGeometry x="380" y="440" width="120" height="30" as="geometry" />
        </mxCell>
        <mxCell id="YYawzCJaXFo9MmSvKnX5-75" value="" style="endArrow=classic;html=1;" edge="1" parent="1">
          <mxGeometry width="50" height="50" relative="1" as="geometry">
            <mxPoint x="220" y="405.23" as="sourcePoint" />
            <mxPoint x="380" y="404.50272727272727" as="targetPoint" />
          </mxGeometry>
        </mxCell>
        <mxCell id="YYawzCJaXFo9MmSvKnX5-76" value="............" style="rounded=0;whiteSpace=wrap;html=1;" vertex="1" parent="1">
          <mxGeometry x="380" y="180" width="120" height="30" as="geometry" />
        </mxCell>
        <mxCell id="YYawzCJaXFo9MmSvKnX5-77" value="manifest.json component/sub app info&lt;br&gt;&amp;nbsp;&amp;nbsp;" style="text;html=1;strokeColor=none;fillColor=none;align=center;verticalAlign=middle;whiteSpace=wrap;rounded=0;" vertex="1" parent="1">
          <mxGeometry x="520" y="340" width="120" height="30" as="geometry" />
        </mxCell>
        <mxCell id="YYawzCJaXFo9MmSvKnX5-78" value="xs-app.json&lt;br&gt;ms-service route info" style="text;html=1;strokeColor=none;fillColor=none;align=center;verticalAlign=middle;whiteSpace=wrap;rounded=0;" vertex="1" parent="1">
          <mxGeometry x="530" y="380" width="120" height="30" as="geometry" />
        </mxCell>
      </root>
    </mxGraphModel>
  </diagram>
</mxfile>
